<svg width="500" height="195" viewBox="0 0 500 195" fill="none" xmlns="http://www.w3.org/2000/svg">
<path d="M215.99 121.25C216.51 121.25 216.89 121.7 216.89 122.22V164.84C216.89 165.29 216.5 165.74 215.99 165.74H204.06C203.54 165.74 203.09 165.29 203.09 164.84V145.88L196.58 164.77C196.39 165.29 195.55 165.74 194.97 165.74H187.88C187.3 165.74 186.46 165.29 186.27 164.77L179.76 145.88V164.84C179.76 165.29 179.31 165.74 178.79 165.74H166.86C166.34 165.74 165.96 165.29 165.96 164.84V122.22C165.96 121.7 166.35 121.25 166.86 121.25H180.34C181.18 121.25 182.15 121.83 182.53 122.54L191.43 147.17L200.33 122.54C200.72 121.83 201.68 121.25 202.52 121.25H215.99Z" fill="white"/>
<path d="M247 166.64C233.27 166.64 224.11 157.36 224.11 143.49C224.11 129.5 233.27 120.22 247 120.22C260.73 120.22 269.89 129.5 269.89 143.49C269.89 157.36 260.73 166.64 247 166.64ZM247 133.24C241.71 133.24 238.17 137.37 238.17 143.49C238.17 149.62 241.72 153.74 247 153.74C252.29 153.74 255.83 149.61 255.83 143.49C255.83 137.37 252.29 133.24 247 133.24Z" fill="white"/>
<path d="M314.18 121.25C314.76 121.25 315.15 121.7 315.15 122.22V164.84C315.15 165.29 314.76 165.74 314.18 165.74H303.03C302.58 165.74 302 165.42 301.68 164.9L290.46 144.85V164.84C290.46 165.29 290.07 165.74 289.49 165.74H278.08C277.56 165.74 277.18 165.29 277.18 164.84V122.22C277.18 121.7 277.57 121.25 278.08 121.25H289.23C289.81 121.25 290.45 121.57 290.71 122.09L301.86 142.14V122.22C301.86 121.7 302.31 121.25 302.76 121.25H314.18Z" fill="white"/>
<path d="M326.56 152.2C326.75 151.56 327.2 151.36 327.72 151.69C330.69 153.37 334.23 154.59 336.68 154.78C338.74 154.78 340.1 153.81 340.1 152.33C340.1 148.53 321.98 148.72 321.98 134.67C321.98 126.03 328.49 120.29 338.29 120.29C342.87 120.29 348.67 122.16 352.73 124.93C353.25 125.25 353.44 125.77 353.25 126.09L349.19 135.18C349 135.82 348.55 136.02 348.03 135.69C344.87 133.89 341.2 132.53 338.94 132.34C336.94 132.34 335.65 133.24 335.65 134.66C335.65 138.46 353.9 138.21 353.9 152.39C353.9 160.96 347.26 166.7 337.33 166.7C331.91 166.7 326.24 165.02 323.02 162.45C322.5 162.06 322.31 161.61 322.5 161.29L326.56 152.2Z" fill="white"/>
<path d="M394 121.25C394.58 121.25 394.97 121.7 394.9 122.15L393.93 131.95C393.87 132.47 393.35 132.85 392.9 132.85H383.29V164.83C383.29 165.28 382.9 165.73 382.39 165.73H370.98C370.46 165.73 370.01 165.28 370.01 164.83V132.85H359.31C358.86 132.85 358.41 132.46 358.41 131.95V122.21C358.41 121.69 358.86 121.24 359.31 121.24H394V121.25Z" fill="white"/>
<path d="M431.32 154.13C431.84 154.13 432.29 154.52 432.29 154.97V164.83C432.29 165.28 431.84 165.73 431.32 165.73H401.34C400.89 165.73 400.44 165.21 400.31 164.76V122.14C400.31 121.56 400.63 121.24 401.21 121.24H430.54C431.12 121.24 431.57 121.69 431.57 122.14V131.87C431.57 132.45 431.12 132.84 430.54 132.84H413.71V137.93H427.38C427.96 137.93 428.28 138.38 428.22 138.77L427.32 147.8C427.26 148.19 426.8 148.64 426.22 148.64H413.71V154.12H431.32V154.13Z" fill="white"/>
<path d="M475.94 164.7C476.26 165.28 475.81 165.73 475.23 165.73H461.43C460.79 165.73 460.2 165.28 459.95 164.7L453.25 150.65H452.48V164.83C452.48 165.28 452.03 165.73 451.45 165.73H440.1C439.58 165.73 439.13 165.28 439.13 164.83V122.21C439.13 121.69 439.58 121.24 440.1 121.24H457.12C467.05 121.24 473.62 127.04 473.62 135.81C473.62 140.9 470.53 146.06 465.69 148.12L475.94 164.7ZM456.27 139.69C458.46 139.69 459.94 138.34 459.94 136.27C459.94 134.2 458.46 132.85 456.27 132.85H452.47V139.68H456.27V139.69Z" fill="white"/>
<path d="M115.39 170.98H47.19C34.35 170.98 23.95 160.58 23.95 147.74V75.6501C23.95 68.7201 27.04 62.1501 32.38 57.7401L66.48 29.5501C75.07 22.4501 87.5 22.4501 96.09 29.5501L130.19 57.7401C135.53 62.1501 138.62 68.7201 138.62 75.6501V147.74C138.63 160.57 128.23 170.98 115.39 170.98Z" fill="#764AF1"/>
<path d="M81.29 115.93C96.384 115.93 108.62 103.694 108.62 88.6C108.62 73.5061 96.384 61.27 81.29 61.27C66.1961 61.27 53.96 73.5061 53.96 88.6C53.96 103.694 66.1961 115.93 81.29 115.93Z" fill="white"/>
<path d="M96.18 88.6C96.18 96.82 89.51 103.48 81.29 103.48C73.07 103.48 66.41 96.82 66.41 88.6C66.41 80.38 73.07 73.71 81.29 73.71C82.37 73.71 83.43 73.83 84.44 74.04C83.38 75.42 82.75 77.14 82.75 79.01C82.75 83.5 86.39 87.14 90.89 87.14C92.76 87.14 94.48 86.51 95.85 85.46C96.07 86.47 96.18 87.52 96.18 88.6Z" fill="black"/>
<path d="M98.88 134.63L110.24 144.79C110.81 145.3 110.62 146.24 109.89 146.49L87.24 153.94C86.51 154.18 85.79 153.54 85.95 152.79L89.06 137.87C90 133.37 95.45 131.57 98.88 134.63Z" fill="white"/>
<path d="M81.29 154.51C69.45 154.51 58.02 151.98 47.33 146.99C45.81 146.28 45.15 144.47 45.86 142.94C46.57 141.41 48.38 140.75 49.91 141.47C59.79 146.08 70.35 148.42 81.3 148.42C92.25 148.42 102.81 146.08 112.69 141.47C114.22 140.76 116.03 141.42 116.74 142.94C117.45 144.46 116.79 146.28 115.27 146.99C104.56 151.98 93.14 154.51 81.29 154.51Z" fill="black"/>
<path d="M166.921 64.0444H202.301C202.893 64.0444 203.288 64.5014 203.222 64.9583L202.236 74.8806C202.17 75.4028 201.644 75.7944 201.183 75.7944H191.385V108.172C191.385 108.629 190.99 109.086 190.464 109.086H178.824C178.298 109.086 177.837 108.629 177.837 108.172V75.7944H166.921C166.46 75.7944 166 75.4028 166 74.8806V65.0236C166 64.5014 166.46 64.0444 166.921 64.0444Z" fill="white"/>
<path d="M226.314 110C212.306 110 202.968 100.6 202.968 86.5653C202.968 72.4 212.306 63 226.314 63C240.321 63 249.66 72.4 249.66 86.5653C249.66 100.6 240.321 110 226.314 110ZM226.314 76.1861C220.921 76.1861 217.304 80.3639 217.304 86.5653C217.304 92.7667 220.921 96.9444 226.314 96.9444C231.706 96.9444 235.323 92.7667 235.323 86.5653C235.323 80.3639 231.706 76.1861 226.314 76.1861Z" fill="white"/>
<path d="M254.704 64.0444H270.224C281.732 64.0444 288.638 70.2458 288.638 79.5806C288.638 88.9153 281.732 95.1167 270.224 95.1167H267.527V108.172C267.527 108.629 267.067 109.086 266.475 109.086H254.704C254.243 109.086 253.783 108.629 253.783 108.172V65.0236C253.783 64.5014 254.243 64.0444 254.704 64.0444ZM267.396 83.4319H270.816C273.117 83.4319 274.696 81.8653 274.696 79.5806C274.696 77.2958 273.117 75.7292 270.816 75.7292H267.396V83.4319Z" fill="white"/>
<path d="M289.97 64.0444H325.351C325.943 64.0444 326.337 64.5014 326.272 64.9583L325.285 74.8806C325.219 75.4028 324.693 75.7944 324.233 75.7944H314.434V108.172C314.434 108.629 314.04 109.086 313.514 109.086H301.873C301.347 109.086 300.887 108.629 300.887 108.172V75.7944H289.97C289.51 75.7944 289.05 75.4028 289.05 74.8806V65.0236C289.05 64.5014 289.51 64.0444 289.97 64.0444Z" fill="white"/>
<path d="M350.13 64.8931L364.993 108.238C365.19 108.629 364.927 109.086 364.401 109.086H351.38C350.788 109.086 350.262 108.76 349.999 108.238L348.026 101.383H335.662L333.69 108.238C333.427 108.76 332.9 109.086 332.309 109.086H319.287C318.761 109.086 318.498 108.629 318.696 108.238L333.558 64.8931C333.755 64.5014 334.479 64.0444 335.136 64.0444H348.552C349.21 64.0444 349.933 64.5014 350.13 64.8931ZM345.395 92.0486L341.844 79.6458L338.293 92.0486H345.395Z" fill="white"/>
<path d="M379.913 97.3361H392.145C392.605 97.3361 393 97.7278 393 98.25L392.079 108.172C392.014 108.629 391.553 109.086 391.027 109.086H367.286C366.76 109.086 366.3 108.629 366.3 108.172V65.0236C366.3 64.5014 366.76 64.0444 367.286 64.0444H378.927C379.453 64.0444 379.913 64.5014 379.913 65.0236V97.3361Z" fill="white"/>
</svg>
