<svg width="500" height="196" viewBox="0 0 500 196" fill="none" xmlns="http://www.w3.org/2000/svg">
<path d="M205.03 103.96C205.55 103.96 205.93 104.41 205.93 104.93V147.55C205.93 148 205.54 148.45 205.03 148.45H193.1C192.58 148.45 192.13 148 192.13 147.55V128.59L185.62 147.48C185.43 148 184.59 148.45 184.01 148.45H176.92C176.34 148.45 175.5 148 175.31 147.48L168.8 128.59V147.55C168.8 148 168.35 148.45 167.83 148.45H155.9C155.38 148.45 155 148 155 147.55V104.93C155 104.41 155.39 103.96 155.9 103.96H169.38C170.22 103.96 171.19 104.54 171.57 105.25L180.47 129.88L189.37 105.25C189.76 104.54 190.72 103.96 191.56 103.96H205.03Z" fill="white"/>
<path d="M236.19 149.35C222.46 149.35 213.3 140.07 213.3 126.2C213.3 112.21 222.46 102.93 236.19 102.93C249.92 102.93 259.08 112.21 259.08 126.2C259.08 140.06 249.92 149.35 236.19 149.35ZM236.19 115.95C230.9 115.95 227.36 120.08 227.36 126.2C227.36 132.33 230.91 136.45 236.19 136.45C241.48 136.45 245.02 132.32 245.02 126.2C245.03 120.08 241.48 115.95 236.19 115.95Z" fill="white"/>
<path d="M303.37 103.96C303.95 103.96 304.34 104.41 304.34 104.93V147.55C304.34 148 303.95 148.45 303.37 148.45H292.22C291.77 148.45 291.19 148.13 290.87 147.61L279.65 127.56V147.55C279.65 148 279.26 148.45 278.68 148.45H267.27C266.75 148.45 266.37 148 266.37 147.55V104.93C266.37 104.41 266.76 103.96 267.27 103.96H278.42C279 103.96 279.64 104.28 279.9 104.8L291.05 124.85V104.93C291.05 104.41 291.5 103.96 291.95 103.96H303.37Z" fill="white"/>
<path d="M315.75 134.91C315.94 134.27 316.39 134.07 316.91 134.4C319.88 136.08 323.42 137.3 325.87 137.49C327.93 137.49 329.29 136.52 329.29 135.04C329.29 131.24 311.17 131.43 311.17 117.38C311.17 108.74 317.68 103 327.48 103C332.06 103 337.86 104.87 341.92 107.64C342.44 107.96 342.63 108.48 342.44 108.8L338.38 117.89C338.19 118.53 337.74 118.73 337.22 118.4C334.06 116.6 330.39 115.24 328.13 115.05C326.13 115.05 324.84 115.95 324.84 117.37C324.84 121.17 343.09 120.92 343.09 135.1C343.09 143.67 336.45 149.41 326.52 149.41C321.1 149.41 315.43 147.73 312.21 145.16C311.69 144.77 311.5 144.32 311.69 144L315.75 134.91Z" fill="white"/>
<path d="M383.19 103.96C383.77 103.96 384.16 104.41 384.09 104.86L383.12 114.66C383.06 115.18 382.54 115.56 382.09 115.56H372.48V147.54C372.48 147.99 372.09 148.44 371.58 148.44H360.17C359.65 148.44 359.2 147.99 359.2 147.54V115.56H348.5C348.05 115.56 347.6 115.17 347.6 114.66V104.92C347.6 104.4 348.05 103.95 348.5 103.95H383.19V103.96Z" fill="white"/>
<path d="M420.52 136.84C421.04 136.84 421.49 137.23 421.49 137.68V147.54C421.49 147.99 421.04 148.44 420.52 148.44H390.54C390.09 148.44 389.64 147.92 389.51 147.47V104.85C389.51 104.27 389.83 103.95 390.41 103.95H419.74C420.32 103.95 420.77 104.4 420.77 104.85V114.58C420.77 115.16 420.32 115.55 419.74 115.55H402.91V120.64H416.58C417.16 120.64 417.48 121.09 417.42 121.48L416.52 130.51C416.46 130.9 416 131.35 415.42 131.35H402.91V136.83H420.52V136.84Z" fill="white"/>
<path d="M465.13 147.41C465.45 147.99 465 148.44 464.42 148.44H450.62C449.98 148.44 449.39 147.99 449.14 147.41L442.44 133.36H441.67V147.54C441.67 147.99 441.22 148.44 440.64 148.44H429.29C428.77 148.44 428.32 147.99 428.32 147.54V104.92C428.32 104.4 428.77 103.95 429.29 103.95H446.31C456.24 103.95 462.81 109.75 462.81 118.52C462.81 123.61 459.72 128.77 454.88 130.83L465.13 147.41ZM445.47 122.4C447.66 122.4 449.14 121.05 449.14 118.98C449.14 116.92 447.66 115.56 445.47 115.56H441.67V122.39H445.47V122.4Z" fill="white"/>
<path d="M70.48 105.64C85.574 105.64 97.81 93.4039 97.81 78.31C97.81 63.216 85.574 50.98 70.48 50.98C55.3861 50.98 43.15 63.216 43.15 78.31C43.15 93.4039 55.3861 105.64 70.48 105.64Z" fill="white"/>
<path d="M85.37 78.3099C85.37 86.5299 78.7 93.1899 70.48 93.1899C62.26 93.1899 55.6 86.5299 55.6 78.3099C55.6 70.0899 62.26 63.4199 70.48 63.4199C71.56 63.4199 72.62 63.5399 73.63 63.7499C72.57 65.1299 71.94 66.8499 71.94 68.7199C71.94 73.2099 75.58 76.8499 80.08 76.8499C81.95 76.8499 83.67 76.2199 85.04 75.1699C85.26 76.1799 85.37 77.2299 85.37 78.3099Z" fill="black"/>
<path d="M88.07 124.35L99.43 134.51C100 135.02 99.81 135.96 99.08 136.21L76.43 143.66C75.7 143.9 74.98 143.26 75.14 142.51L78.25 127.59C79.19 123.08 84.64 121.29 88.07 124.35Z" fill="white"/>
<path d="M70.49 144.22C58.65 144.22 47.22 141.69 36.53 136.7C35.01 135.99 34.35 134.18 35.06 132.65C35.77 131.12 37.58 130.46 39.11 131.18C48.99 135.79 59.55 138.13 70.5 138.13C81.45 138.13 92.01 135.79 101.89 131.18C103.42 130.47 105.23 131.13 105.94 132.65C106.65 134.17 105.99 135.99 104.47 136.7C93.75 141.69 82.33 144.22 70.49 144.22Z" fill="black"/>
<path d="M104.362 160.588H36.3561C23.5526 160.588 13.1822 150.217 13.1822 137.414V65.5288C13.1822 58.6185 16.2634 52.0672 21.5882 47.6697L55.5913 19.5599C64.1569 12.48 76.5516 12.48 85.1172 19.5599L119.12 47.6697C124.445 52.0672 127.526 58.6185 127.526 65.5288V137.414C127.536 150.207 117.166 160.588 104.362 160.588Z" fill="#764AF1"/>
<path d="M70.3593 105.694C85.4103 105.694 97.6116 93.4933 97.6116 78.4422C97.6116 63.3912 85.4103 51.1899 70.3593 51.1899C55.3082 51.1899 43.1069 63.3912 43.1069 78.4422C43.1069 93.4933 55.3082 105.694 70.3593 105.694Z" fill="white"/>
<path d="M85.2069 78.4419C85.2069 86.6386 78.5558 93.2796 70.3592 93.2796C62.1626 93.2796 55.5215 86.6386 55.5215 78.4419C55.5215 70.2453 62.1626 63.5942 70.3592 63.5942C71.4361 63.5942 72.4931 63.7139 73.5003 63.9233C72.4433 65.2994 71.8151 67.0145 71.8151 68.8792C71.8151 73.3564 75.4447 76.9861 79.9319 76.9861C81.7966 76.9861 83.5117 76.3579 84.8778 75.3108C85.0972 76.318 85.2069 77.365 85.2069 78.4419Z" fill="black"/>
<path d="M87.8992 124.341L99.2269 134.472C99.7953 134.981 99.6059 135.918 98.8779 136.167L76.2923 143.596C75.5644 143.836 74.8464 143.197 75.006 142.45L78.1071 127.572C79.0445 123.085 84.479 121.29 87.8992 124.341Z" fill="white"/>
<path d="M70.3592 144.165C58.5529 144.165 47.1554 141.642 36.4957 136.666C34.9801 135.958 34.3219 134.153 35.0299 132.628C35.7379 131.102 37.5428 130.444 39.0684 131.162C48.9203 135.759 59.4503 138.092 70.3692 138.092C81.2881 138.092 91.818 135.759 101.67 131.162C103.196 130.454 105 131.112 105.708 132.628C106.416 134.143 105.758 135.958 104.243 136.666C93.5631 141.642 82.1755 144.165 70.3592 144.165Z" fill="black"/>
<path d="M155.884 45H189.862C190.431 45 190.809 45.4375 190.746 45.875L189.799 55.375C189.736 55.875 189.231 56.25 188.789 56.25H179.378V87.25C179.378 87.6875 178.999 88.125 178.494 88.125H167.315C166.81 88.125 166.368 87.6875 166.368 87.25V56.25H155.884C155.442 56.25 155 55.875 155 55.375V45.9375C155 45.4375 155.442 45 155.884 45Z" fill="white"/>
<path d="M212.923 89C199.47 89 190.502 80 190.502 66.5625C190.502 53 199.47 44 212.923 44C226.375 44 235.343 53 235.343 66.5625C235.343 80 226.375 89 212.923 89ZM212.923 56.625C207.744 56.625 204.27 60.625 204.27 66.5625C204.27 72.5 207.744 76.5 212.923 76.5C218.101 76.5 221.575 72.5 221.575 66.5625C221.575 60.625 218.101 56.625 212.923 56.625Z" fill="white"/>
<path d="M240.187 45H255.092C266.144 45 272.775 50.9375 272.775 59.875C272.775 68.8125 266.144 74.75 255.092 74.75H252.502V87.25C252.502 87.6875 252.06 88.125 251.492 88.125H240.187C239.745 88.125 239.303 87.6875 239.303 87.25V45.9375C239.303 45.4375 239.745 45 240.187 45ZM252.376 63.5625H255.66C257.87 63.5625 259.386 62.0625 259.386 59.875C259.386 57.6875 257.87 56.1875 255.66 56.1875H252.376V63.5625Z" fill="white"/>
<path d="M274.055 45H308.033C308.602 45 308.98 45.4375 308.917 45.875L307.97 55.375C307.907 55.875 307.402 56.25 306.959 56.25H297.549V87.25C297.549 87.6875 297.17 88.125 296.665 88.125H285.486C284.981 88.125 284.539 87.6875 284.539 87.25V56.25H274.055C273.613 56.25 273.171 55.875 273.171 55.375V45.9375C273.171 45.4375 273.613 45 274.055 45Z" fill="white"/>
<path d="M331.83 45.8125L346.103 87.3125C346.293 87.6875 346.04 88.125 345.535 88.125H333.03C332.462 88.125 331.956 87.8125 331.704 87.3125L329.809 80.75H317.936L316.041 87.3125C315.788 87.8125 315.283 88.125 314.715 88.125H302.21C301.705 88.125 301.452 87.6875 301.642 87.3125L315.915 45.8125C316.104 45.4375 316.799 45 317.431 45H330.314C330.946 45 331.641 45.4375 331.83 45.8125ZM327.283 71.8125L323.872 59.9375L320.462 71.8125H327.283Z" fill="white"/>
<path d="M360.432 76.875H372.179C372.621 76.875 373 77.25 373 77.75L372.116 87.25C372.053 87.6875 371.611 88.125 371.105 88.125H348.306C347.801 88.125 347.359 87.6875 347.359 87.25V45.9375C347.359 45.4375 347.801 45 348.306 45H359.485C359.99 45 360.432 45.4375 360.432 45.9375V76.875Z" fill="white"/>
</svg>
