<svg width="500" height="196" viewBox="0 0 500 196" fill="none" xmlns="http://www.w3.org/2000/svg">
<path d="M215.99 121.25C216.51 121.25 216.89 121.7 216.89 122.22V164.84C216.89 165.29 216.5 165.74 215.99 165.74H204.06C203.54 165.74 203.09 165.29 203.09 164.84V145.88L196.58 164.77C196.39 165.29 195.55 165.74 194.97 165.74H187.88C187.3 165.74 186.46 165.29 186.27 164.77L179.76 145.88V164.84C179.76 165.29 179.31 165.74 178.79 165.74H166.86C166.34 165.74 165.96 165.29 165.96 164.84V122.22C165.96 121.7 166.35 121.25 166.86 121.25H180.34C181.18 121.25 182.15 121.83 182.53 122.54L191.43 147.17L200.33 122.54C200.72 121.83 201.68 121.25 202.52 121.25H215.99Z" fill="black"/>
<path d="M247 166.64C233.27 166.64 224.11 157.36 224.11 143.49C224.11 129.5 233.27 120.22 247 120.22C260.73 120.22 269.89 129.5 269.89 143.49C269.89 157.36 260.73 166.64 247 166.64ZM247 133.24C241.71 133.24 238.17 137.37 238.17 143.49C238.17 149.62 241.72 153.74 247 153.74C252.29 153.74 255.83 149.61 255.83 143.49C255.83 137.37 252.29 133.24 247 133.24Z" fill="black"/>
<path d="M314.18 121.25C314.76 121.25 315.15 121.7 315.15 122.22V164.84C315.15 165.29 314.76 165.74 314.18 165.74H303.03C302.58 165.74 302 165.42 301.68 164.9L290.46 144.85V164.84C290.46 165.29 290.07 165.74 289.49 165.74H278.08C277.56 165.74 277.18 165.29 277.18 164.84V122.22C277.18 121.7 277.57 121.25 278.08 121.25H289.23C289.81 121.25 290.45 121.57 290.71 122.09L301.86 142.14V122.22C301.86 121.7 302.31 121.25 302.76 121.25H314.18Z" fill="black"/>
<path d="M326.56 152.2C326.75 151.56 327.2 151.36 327.72 151.69C330.69 153.37 334.23 154.59 336.68 154.78C338.74 154.78 340.1 153.81 340.1 152.33C340.1 148.53 321.98 148.72 321.98 134.67C321.98 126.03 328.49 120.29 338.29 120.29C342.87 120.29 348.67 122.16 352.73 124.93C353.25 125.25 353.44 125.77 353.25 126.09L349.19 135.18C349 135.82 348.55 136.02 348.03 135.69C344.87 133.89 341.2 132.53 338.94 132.34C336.94 132.34 335.65 133.24 335.65 134.66C335.65 138.46 353.9 138.21 353.9 152.39C353.9 160.96 347.26 166.7 337.33 166.7C331.91 166.7 326.24 165.02 323.02 162.45C322.5 162.06 322.31 161.61 322.5 161.29L326.56 152.2Z" fill="black"/>
<path d="M394 121.25C394.58 121.25 394.97 121.7 394.9 122.15L393.93 131.95C393.87 132.47 393.35 132.85 392.9 132.85H383.29V164.83C383.29 165.28 382.9 165.73 382.39 165.73H370.98C370.46 165.73 370.01 165.28 370.01 164.83V132.85H359.31C358.86 132.85 358.41 132.46 358.41 131.95V122.21C358.41 121.69 358.86 121.24 359.31 121.24H394V121.25Z" fill="black"/>
<path d="M431.32 154.13C431.84 154.13 432.29 154.52 432.29 154.97V164.83C432.29 165.28 431.84 165.73 431.32 165.73H401.34C400.89 165.73 400.44 165.21 400.31 164.76V122.14C400.31 121.56 400.63 121.24 401.21 121.24H430.54C431.12 121.24 431.57 121.69 431.57 122.14V131.87C431.57 132.45 431.12 132.84 430.54 132.84H413.71V137.93H427.38C427.96 137.93 428.28 138.38 428.22 138.77L427.32 147.8C427.26 148.19 426.8 148.64 426.22 148.64H413.71V154.12H431.32V154.13Z" fill="black"/>
<path d="M475.94 164.7C476.26 165.28 475.81 165.73 475.23 165.73H461.43C460.79 165.73 460.2 165.28 459.95 164.7L453.25 150.65H452.48V164.83C452.48 165.28 452.03 165.73 451.45 165.73H440.1C439.58 165.73 439.13 165.28 439.13 164.83V122.21C439.13 121.69 439.58 121.24 440.1 121.24H457.12C467.05 121.24 473.62 127.04 473.62 135.81C473.62 140.9 470.53 146.06 465.69 148.12L475.94 164.7ZM456.27 139.69C458.46 139.69 459.94 138.34 459.94 136.27C459.94 134.2 458.46 132.85 456.27 132.85H452.47V139.68H456.27V139.69Z" fill="black"/>
<path d="M166.884 62H200.862C201.431 62 201.809 62.4375 201.746 62.875L200.799 72.375C200.736 72.875 200.231 73.25 199.789 73.25H190.378V104.25C190.378 104.687 189.999 105.125 189.494 105.125H178.315C177.81 105.125 177.368 104.687 177.368 104.25V73.25H166.884C166.442 73.25 166 72.875 166 72.375V62.9375C166 62.4375 166.442 62 166.884 62Z" fill="black"/>
<path d="M223.923 106C210.47 106 201.502 97 201.502 83.5625C201.502 70 210.47 61 223.923 61C237.375 61 246.343 70 246.343 83.5625C246.343 97 237.375 106 223.923 106ZM223.923 73.625C218.744 73.625 215.27 77.625 215.27 83.5625C215.27 89.5 218.744 93.5 223.923 93.5C229.101 93.5 232.575 89.5 232.575 83.5625C232.575 77.625 229.101 73.625 223.923 73.625Z" fill="black"/>
<path d="M251.187 62H266.092C277.144 62 283.775 67.9375 283.775 76.875C283.775 85.8125 277.144 91.75 266.092 91.75H263.502V104.25C263.502 104.687 263.06 105.125 262.492 105.125H251.187C250.745 105.125 250.303 104.687 250.303 104.25V62.9375C250.303 62.4375 250.745 62 251.187 62ZM263.376 80.5625H266.66C268.87 80.5625 270.386 79.0625 270.386 76.875C270.386 74.6875 268.87 73.1875 266.66 73.1875H263.376V80.5625Z" fill="black"/>
<path d="M285.055 62H319.033C319.602 62 319.98 62.4375 319.917 62.875L318.97 72.375C318.907 72.875 318.402 73.25 317.959 73.25H308.549V104.25C308.549 104.687 308.17 105.125 307.665 105.125H296.486C295.981 105.125 295.539 104.687 295.539 104.25V73.25H285.055C284.613 73.25 284.171 72.875 284.171 72.375V62.9375C284.171 62.4375 284.613 62 285.055 62Z" fill="black"/>
<path d="M342.83 62.8125L357.103 104.312C357.293 104.687 357.04 105.125 356.535 105.125H344.03C343.462 105.125 342.956 104.812 342.704 104.312L340.809 97.75H328.936L327.041 104.312C326.788 104.812 326.283 105.125 325.715 105.125H313.21C312.705 105.125 312.452 104.687 312.642 104.312L326.915 62.8125C327.104 62.4375 327.799 62 328.431 62H341.314C341.946 62 342.641 62.4375 342.83 62.8125ZM338.283 88.8125L334.872 76.9375L331.462 88.8125H338.283Z" fill="black"/>
<path d="M371.432 93.875H383.179C383.621 93.875 384 94.25 384 94.75L383.116 104.25C383.053 104.687 382.611 105.125 382.105 105.125H359.306C358.801 105.125 358.359 104.687 358.359 104.25V62.9375C358.359 62.4375 358.801 62 359.306 62H370.485C370.99 62 371.432 62.4375 371.432 62.9375V93.875Z" fill="black"/>
<path d="M115.39 170.98H47.19C34.35 170.98 23.95 160.58 23.95 147.74V75.6501C23.95 68.7201 27.04 62.1501 32.38 57.7401L66.48 29.5501C75.07 22.4501 87.5 22.4501 96.09 29.5501L130.19 57.7401C135.53 62.1501 138.62 68.7201 138.62 75.6501V147.74C138.63 160.57 128.23 170.98 115.39 170.98Z" fill="#764AF1"/>
<path d="M81.29 115.93C96.384 115.93 108.62 103.694 108.62 88.6C108.62 73.5061 96.384 61.27 81.29 61.27C66.1961 61.27 53.96 73.5061 53.96 88.6C53.96 103.694 66.1961 115.93 81.29 115.93Z" fill="white"/>
<path d="M96.18 88.6C96.18 96.82 89.51 103.48 81.29 103.48C73.07 103.48 66.41 96.82 66.41 88.6C66.41 80.38 73.07 73.71 81.29 73.71C82.37 73.71 83.43 73.83 84.44 74.04C83.38 75.42 82.75 77.14 82.75 79.01C82.75 83.5 86.39 87.14 90.89 87.14C92.76 87.14 94.48 86.51 95.85 85.46C96.07 86.47 96.18 87.52 96.18 88.6Z" fill="black"/>
<path d="M98.88 134.63L110.24 144.79C110.81 145.3 110.62 146.24 109.89 146.49L87.24 153.94C86.51 154.18 85.79 153.54 85.95 152.79L89.06 137.87C90 133.37 95.45 131.57 98.88 134.63Z" fill="white"/>
<path d="M81.29 154.51C69.45 154.51 58.02 151.98 47.33 146.99C45.81 146.28 45.15 144.47 45.86 142.94C46.57 141.41 48.38 140.75 49.91 141.47C59.79 146.08 70.35 148.42 81.3 148.42C92.25 148.42 102.81 146.08 112.69 141.47C114.22 140.76 116.03 141.42 116.74 142.94C117.45 144.46 116.79 146.28 115.27 146.99C104.56 151.98 93.14 154.51 81.29 154.51Z" fill="black"/>
</svg>
