<svg width="185" height="74" viewBox="0 0 185 74" fill="none" xmlns="http://www.w3.org/2000/svg">
<rect width="185" height="74" fill="white"/>
<path d="M40.3237 37.003L35.1558 42.168C31.5004 45.8213 34.0819 51.9966 39.2484 51.9981L45.99 52L45.9985 22.0092L25.3326 22.0034L40.3237 37.003Z" fill="#FF1493"/>
<path d="M19.6748 36.997L24.8427 31.832C28.4981 28.1787 25.9166 22.0034 20.7501 22.0019L14.0085 22L14 51.9908L34.666 51.9966L19.6748 36.997Z" fill="#FF1493"/>
<path d="M65.832 45V30.432H60.24V27.72H74.328V30.432H68.736V45H65.832ZM80.0723 45.36C76.1603 45.36 73.6163 42.528 73.6163 38.52C73.6163 34.464 76.2323 31.68 80.0723 31.68C83.9603 31.68 86.5283 34.512 86.5283 38.52C86.5283 42.552 83.9363 45.36 80.0723 45.36ZM80.0723 42.648C82.3523 42.648 83.4803 40.944 83.4803 38.52C83.4803 36 82.3283 34.392 80.0723 34.392C77.7443 34.392 76.6883 36.072 76.6883 38.52C76.6883 41.04 77.8403 42.648 80.0723 42.648ZM95.2922 31.68C98.9642 31.68 101.316 34.584 101.316 38.52C101.316 42.408 98.9882 45.36 95.3882 45.36C94.0442 45.36 92.9402 44.976 92.0522 44.328V50.76H89.1482V32.04H91.7162V32.952C92.6282 32.136 93.8282 31.68 95.2922 31.68ZM94.9562 42.768C97.2122 42.768 98.2682 40.896 98.2682 38.52C98.2682 36.168 97.1882 34.272 94.8602 34.272C92.6522 34.272 91.7162 36 91.7162 38.52C91.7162 41.04 92.6282 42.768 94.9562 42.768ZM107.753 34.296V39.552C107.753 40.56 107.705 41.376 108.017 41.88C108.593 42.816 109.937 42.816 111.569 42.576V45C109.001 45.504 106.385 45.264 105.377 43.416C104.777 42.288 104.873 41.184 104.873 39.696V34.296H102.521V32.04H104.873V28.44H107.753V32.04H111.569V34.296H107.753ZM124.568 34.08C125.024 34.992 125.048 35.928 125.048 37.056V45H122.528V43.248C121.424 44.688 120.032 45.36 117.968 45.36C115.16 45.36 113.624 43.584 113.624 41.448C113.624 39.576 114.536 38.28 116.576 37.56C117.944 37.128 119.936 36.84 122.216 36.528C122.12 35.016 121.328 34.32 119.552 34.32C118.4 34.32 117.152 34.824 116.744 36.144L114.08 35.304C114.728 33.12 116.504 31.68 119.576 31.68C121.88 31.68 123.704 32.376 124.568 34.08ZM121.88 40.896C122.12 40.32 122.168 39.504 122.192 38.88C120.128 39.216 118.952 39.408 118.04 39.696C117.032 40.08 116.456 40.584 116.456 41.4C116.456 42.36 117.176 43.056 118.544 43.056C120.512 43.056 121.616 41.808 121.88 40.896ZM128.412 45V27.36H131.292V45H128.412Z" fill="#FF1493"/>
</svg>
